<svg xmlns="http://www.w3.org/2000/svg" viewBox="0 0 1200 320" role="img" aria-label="智能助手浅色标志">
  <defs>
    <linearGradient id="bgLight" x1="0" y1="0" x2="1" y2="1">
      <stop offset="0%" stop-color="#dbeafe" />
      <stop offset="55%" stop-color="#bfdbfe" />
      <stop offset="100%" stop-color="#93c5fd" />
    </linearGradient>
    <linearGradient id="lineLight" x1="0" y1="0" x2="1" y2="1">
      <stop offset="0%" stop-color="#1d4ed8" />
      <stop offset="100%" stop-color="#0891b2" />
    </linearGradient>
  </defs>
  <rect x="20" y="40" width="240" height="240" rx="56" fill="url(#bgLight)" />
  <path d="M140 90l62 36v72l-62 36-62-36v-72z" fill="none" stroke="url(#lineLight)" stroke-width="9" stroke-linejoin="round" />
  <path d="M140 122v80M106 142l34 20 34-20M106 182l34 20 34-20" fill="none" stroke="#0f172a" stroke-width="7" stroke-linecap="round" stroke-linejoin="round" />
  <circle cx="140" cy="90" r="7" fill="#0891b2" />
  <circle cx="202" cy="126" r="6" fill="#2563eb" />
  <circle cx="202" cy="198" r="6" fill="#2563eb" />
  <circle cx="140" cy="234" r="7" fill="#0891b2" />
  <circle cx="78" cy="198" r="6" fill="#2563eb" />
  <circle cx="78" cy="126" r="6" fill="#2563eb" />
  <text x="320" y="156" fill="#0f172a" font-family="Microsoft YaHei,PingFang SC,Segoe UI,Arial,sans-serif" font-size="84" font-weight="700">智能助手</text>
  <text x="324" y="220" fill="#334155" font-family="Microsoft YaHei,PingFang SC,Segoe UI,Arial,sans-serif" font-size="36" font-weight="500">本地优先智能系统</text>
</svg>
